<svg id="Building_BG" data-name="Building&amp;BG" xmlns="http://www.w3.org/2000/svg" viewBox="0 0 720 720"><defs><style>.cls-1,.cls-2,.cls-3,.cls-4,.cls-6,.cls-7,.cls-8,.cls-9{fill:none;}.cls-1{stroke:#4d59b2;}.cls-1,.cls-10,.cls-11,.cls-12,.cls-2,.cls-3,.cls-4,.cls-5,.cls-6,.cls-7,.cls-8,.cls-9{stroke-miterlimit:10;}.cls-1,.cls-2,.cls-3,.cls-4,.cls-5,.cls-6,.cls-7,.cls-8,.cls-9{stroke-width:4px;}.cls-2{stroke:#20348b;}.cls-3{stroke:#556ac8;}.cls-4,.cls-5{stroke:#7f8fd6;}.cls-5{fill:#e2e1f9;}.cls-6{stroke:#c1d6de;}.cls-7{stroke:#a1bbe0;}.cls-8{stroke:#2a45ba;}.cls-9{stroke:#4f63c9;}.cls-10{fill:#33c;stroke:#374d9b;}.cls-10,.cls-11{stroke-width:2px;}.cls-11{fill:#e0e0fa;stroke:#a9d0ff;}.cls-12{fill:#5ab5ff;stroke:#979fdd;}.cls-12,.cls-13{opacity:0.8;}.cls-13{fill:#26127a;}</style></defs><line class="cls-1" x1="254.25" y1="296.45" x2="254.25" y2="220.58"/><line class="cls-2" x1="271.11" y1="287" x2="271.11" y2="183.2"/><line class="cls-3" x1="289.42" y1="277.07" x2="289.42" y2="155.59"/><line class="cls-3" x1="308.94" y1="265.8" x2="308.94" y2="164.15"/><line class="cls-3" x1="240.51" y1="305.23" x2="240.51" y2="216.33"/><line class="cls-4" x1="436.43" y1="288.36" x2="436.43" y2="189.03"/><line class="cls-5" x1="452.18" y1="296.53" x2="452.18" y2="220.58"/><line class="cls-4" x1="418.36" y1="237.04" x2="418.36" y2="183.2"/><line class="cls-6" x1="410.59" y1="211.26" x2="452.66" y2="240.33"/><line class="cls-7" x1="422.75" y1="249.76" x2="452.18" y2="268.08"/><line class="cls-7" x1="469.67" y1="278.98" x2="452.18" y2="268.08"/><line class="cls-8" x1="254.25" y1="239.96" x2="307.96" y2="201.2"/><line class="cls-8" x1="238.56" y1="278.45" x2="289.17" y2="246.96"/><line class="cls-9" x1="254.25" y1="212.27" x2="308.94" y2="171.37"/><polygon class="cls-10" points="353.45 719.05 238.56 718.24 238.56 278.45 254.25 268.69 271.11 282.82 289.42 277.07 288.89 213.72 330.3 155.4 353.45 138.07 353.45 719.05"/><polygon class="cls-11" points="469.68 718.24 353.45 719.05 353.45 138.07 397.97 171.37 436.43 288.36 452.18 296.52 469.68 224.99 469.68 718.24"/><polygon class="cls-12" points="239.71 278.12 239.71 718.24 260.29 718.24 260.29 365.73 267.04 324.48 310.08 270.41 331.44 155.08 288.53 214.65 288.53 276.75 272.25 281 255.39 267.63 239.71 278.12"/><polygon class="cls-13" points="285.46 363.66 286.86 719.05 351.27 718.24 350.89 420.13 351.28 379.5 351.27 347.91 351.28 191.81 330.47 262.7 320.65 296.96 316.05 308.07 295.99 337.56 285.46 363.66"/></svg>