<svg id="Building_BG" data-name="Building&amp;BG" xmlns="http://www.w3.org/2000/svg" viewBox="0 0 720 720"><defs><style>.cls-1,.cls-2,.cls-5,.cls-7{fill:none;}.cls-1{stroke:#741d1d;}.cls-1,.cls-10,.cls-2,.cls-3,.cls-4,.cls-5,.cls-6,.cls-7,.cls-8,.cls-9{stroke-miterlimit:10;}.cls-1,.cls-2,.cls-3,.cls-4,.cls-5,.cls-6,.cls-7,.cls-8{stroke-width:2px;}.cls-2{stroke:#9b2727;}.cls-3,.cls-4,.cls-6,.cls-8{fill:#7a4445;}.cls-3,.cls-5{stroke:#af7273;}.cls-4{stroke:#ff5050;}.cls-6{stroke:#ffa7a7;}.cls-7{stroke:#ff2424;}.cls-8{stroke:#ff7c7c;}.cls-9{fill:#822020;stroke:#994141;}.cls-10{fill:#fcfcfc;stroke:#ff1d1d;}.cls-11{fill:#6b0a0a;opacity:0.8;}</style></defs><line class="cls-1" x1="358.49" y1="409.37" x2="358.49" y2="377.59"/><line class="cls-2" x1="372.06" y1="390.33" x2="345.35" y2="396.63"/><line class="cls-3" x1="429.32" y1="418.41" x2="429.32" y2="388.2"/><line class="cls-4" x1="438.65" y1="421.81" x2="438.65" y2="400.59"/><line class="cls-4" x1="447.69" y1="425.11" x2="447.69" y2="394.83"/><line class="cls-5" x1="408.44" y1="392.37" x2="408.44" y2="387.44"/><line class="cls-5" x1="419.09" y1="405.65" x2="419.09" y2="392.37"/><line class="cls-6" x1="447.4" y1="415.72" x2="419.07" y2="402.93"/><line class="cls-7" x1="450.96" y1="425.04" x2="450.96" y2="412.66"/><line class="cls-8" x1="429.32" y1="396.39" x2="447.18" y2="404.57"/><polygon class="cls-9" points="299.13 718.24 384.87 718.24 384.87 382.09 372.06 385.05 358.49 409.37 343.04 393.48 328.74 403.3 299.13 418.41 299.13 718.24"/><polygon class="cls-10" points="450.96 718.24 385.85 718.24 384.87 382.09 408.44 392.37 429.32 418.41 447.69 425.11 451.81 424.19 450.96 718.24"/><polygon class="cls-11" points="365.11 408.44 365.11 458.99 365.11 496.57 358.54 526.14 358.87 717.82 384.55 717.82 384.55 531.25 384.82 382.51 371.24 385.01 365.11 408.44"/></svg>