<svg width="154" height="154" viewBox="0 0 154 154" fill="none" xmlns="http://www.w3.org/2000/svg">
<path fill-rule="evenodd" clip-rule="evenodd" d="M76.9994 19.25C45.1049 19.25 19.2493 45.1055 19.2493 77C19.2493 108.894 45.1049 134.75 76.9994 134.75C108.894 134.75 134.749 108.894 134.749 77C134.749 45.1055 108.894 19.25 76.9994 19.25ZM6.41602 77C6.41602 38.0179 38.0173 6.41663 76.9994 6.41663C115.981 6.41663 147.583 38.0179 147.583 77C147.583 115.982 115.981 147.583 76.9994 147.583C38.0173 147.583 6.41602 115.982 6.41602 77Z" fill="#F0C83B"/>
<path fill-rule="evenodd" clip-rule="evenodd" d="M77.0007 44.9166C80.5445 44.9166 83.4173 47.7895 83.4173 51.3333V77C83.4173 80.5438 80.5445 83.4166 77.0007 83.4166C73.4568 83.4166 70.584 80.5438 70.584 77V51.3333C70.584 47.7895 73.4568 44.9166 77.0007 44.9166Z" fill="#EBBE1D"/>
<path fill-rule="evenodd" clip-rule="evenodd" d="M70.584 102.667C70.584 99.1228 73.4568 96.25 77.0007 96.25H77.0648C80.6086 96.25 83.4815 99.1228 83.4815 102.667C83.4815 106.21 80.6086 109.083 77.0648 109.083H77.0007C73.4568 109.083 70.584 106.21 70.584 102.667Z" fill="#DEAA24" fill-opacity="0.62"/>
</svg>
