<svg width="161" height="161" viewBox="0 0 161 161" fill="none" xmlns="http://www.w3.org/2000/svg">
<path fill-rule="evenodd" clip-rule="evenodd" d="M105.073 25.3134C93.181 20.0145 79.8944 18.7018 67.1951 21.571C54.4959 24.4403 43.0642 31.3377 34.6053 41.2347C26.1463 51.1317 21.1132 63.498 20.2565 76.4892C19.3999 89.4803 22.7657 102.4 29.8518 113.322C36.938 124.244 47.3649 132.583 59.5775 137.095C71.7901 141.607 85.134 142.05 97.6191 138.359C110.104 134.667 121.062 127.039 128.857 116.611C136.652 106.184 140.868 93.5156 140.876 80.4962V74.3283C140.876 70.6234 143.879 67.62 147.584 67.62C151.289 67.62 154.292 70.6234 154.292 74.3283V80.5C154.283 96.4126 149.131 111.9 139.603 124.645C130.075 137.39 116.683 146.713 101.423 151.225C86.1636 155.737 69.8544 155.195 54.9279 149.68C40.0014 144.166 27.2574 133.974 18.5965 120.625C9.93564 107.276 5.82194 91.4845 6.86894 75.6064C7.91594 59.7283 14.0675 44.614 24.4063 32.5176C34.745 20.4213 48.717 11.9911 64.2384 8.48424C79.7597 4.97739 95.9989 6.58182 110.534 13.0582C113.918 14.5661 115.439 18.5319 113.931 21.9161C112.423 25.3003 108.457 26.8213 105.073 25.3134Z" fill="#17F12D" fill-opacity="0.75"/>
<path fill-rule="evenodd" clip-rule="evenodd" d="M152.324 22.0875C154.945 24.7059 154.947 28.9534 152.329 31.5745L85.2452 98.7249C83.9874 99.984 82.2808 100.692 80.501 100.692C78.7213 100.693 77.0143 99.9857 75.7558 98.7273L55.6308 78.6023C53.0111 75.9825 53.0111 71.735 55.6308 69.1152C58.2506 66.4955 62.4981 66.4955 65.1179 69.1152L80.497 84.4944L142.837 22.0922C145.455 19.4711 149.703 19.469 152.324 22.0875Z" fill="#00DB15"/>
</svg>
